<svg width="150" height="46" viewBox="0 0 150 46" fill="none" xmlns="http://www.w3.org/2000/svg">
<g clip-path="url(#clip0_2013_23907)">
<path d="M138.055 0.0001495H11.9518C11.4921 0.0001495 11.038 0.0001495 10.5796 0.0024495C10.1958 0.0047495 9.81509 0.011431 9.42764 0.0170545C8.58593 0.0261416 7.74619 0.0940772 6.91573 0.220271C6.08644 0.349212 5.28313 0.592303 4.53296 0.941321C3.78372 1.29329 3.09911 1.75064 2.50397 2.29678C1.90571 2.84138 1.40702 3.47087 1.02706 4.16103C0.646059 4.84982 0.38187 5.58793 0.243619 6.34985C0.104055 7.11081 0.028954 7.88055 0.0189907 8.65215C0.0073581 9.00474 0.00612966 9.3585 0 9.71114V36.2925C0.00612966 36.6496 0.0073581 36.9955 0.0189907 37.3527C0.0289571 38.1243 0.104058 38.894 0.243619 39.6549C0.381488 40.4173 0.645693 41.1558 1.02706 41.8449C1.40685 42.5328 1.90561 43.1597 2.50397 43.7013C3.09685 44.2499 3.7819 44.7075 4.53296 45.0568C5.28312 45.4068 6.08635 45.6513 6.91573 45.7822C7.74633 45.9074 8.58598 45.9754 9.42764 45.9855C9.81509 45.9934 10.1958 45.9978 10.5796 45.9978C11.038 46.0001 11.4922 46.0001 11.9518 46.0001H138.055C138.505 46.0001 138.963 46.0001 139.414 45.9978C139.796 45.9978 140.187 45.9934 140.569 45.9855C141.409 45.9759 142.247 45.9079 143.076 45.7822C143.908 45.6504 144.715 45.4059 145.468 45.0568C146.219 44.7073 146.903 44.2497 147.495 43.7013C148.092 43.1576 148.592 42.5311 148.977 41.8449C149.355 41.1553 149.617 40.4168 149.753 39.6549C149.892 38.8939 149.97 38.1244 149.985 37.3527C149.99 36.9955 149.99 36.6496 149.99 36.2925C150 35.8747 150 35.4592 150 35.0347V10.9667C150 10.5456 150 10.1278 149.99 9.71114C149.99 9.3585 149.99 9.00474 149.985 8.65211C149.97 7.88044 149.892 7.11087 149.753 6.34981C149.616 5.58832 149.355 4.85028 148.977 4.16099C148.203 2.77762 146.976 1.65158 145.468 0.941217C144.715 0.593052 143.908 0.350026 143.076 0.220167C142.248 0.0934177 141.409 0.0254584 140.569 0.0168935C140.187 0.0112815 139.796 0.0045425 139.414 0.0023C138.963 0 138.505 0 138.055 0V0.0001495Z" fill="#A6A6A6"/>
<path d="M10.589 44.9973C10.2071 44.9973 9.83439 44.9928 9.45547 44.985C8.6705 44.9756 7.88736 44.9129 7.11248 44.7974C6.38995 44.6832 5.69001 44.4709 5.03574 44.1673C4.38748 43.8663 3.79621 43.4715 3.28459 42.9982C2.76556 42.5305 2.33345 41.988 2.00537 41.3923C1.67368 40.7926 1.44413 40.1499 1.32472 39.4865C1.19576 38.7736 1.12599 38.0528 1.11601 37.3302C1.10806 37.0877 1.09766 36.2802 1.09766 36.2802V9.71451C1.09766 9.71451 1.10874 8.91939 1.11607 8.68579C1.12563 7.96437 1.19499 7.24467 1.32356 6.53291C1.4432 5.86765 1.67293 5.22308 2.0048 4.62149C2.33167 4.02615 2.76138 3.48326 3.27728 3.01385C3.7926 2.53998 4.38576 2.14321 5.03513 1.83801C5.68789 1.53542 6.38651 1.32456 7.10758 1.21248C7.885 1.09583 8.67086 1.03276 9.45855 1.02381L10.5896 1.00977H139.411L140.556 1.02437C141.336 1.03288 142.115 1.09538 142.885 1.21135C143.613 1.32484 144.319 1.53717 144.98 1.84138C146.28 2.45645 147.339 3.42955 148.007 4.6243C148.333 5.22173 148.56 5.86105 148.678 6.52056C148.808 7.23816 148.881 7.96352 148.896 8.69085C148.899 9.01653 148.899 9.36636 148.899 9.71451C148.909 10.1458 148.909 10.5562 148.909 10.9701V35.038C148.909 35.4558 148.909 35.8635 148.899 36.2745C148.899 36.6485 148.899 36.9911 148.894 37.3437C148.88 38.058 148.808 38.7704 148.68 39.4752C148.563 40.1434 148.335 40.7912 148.003 41.3957C147.673 41.985 147.243 42.5228 146.73 42.9893C146.218 43.4651 145.626 43.8622 144.976 44.1651C144.318 44.471 143.613 44.6842 142.885 44.7974C142.11 44.9135 141.327 44.9762 140.542 44.985C140.175 44.9928 139.79 44.9973 139.417 44.9973L138.058 44.9996L10.589 44.9973Z" fill="black"/>
<path d="M34.2953 23.3452C34.3079 22.3853 34.5658 21.4442 35.0452 20.6093C35.5246 19.7745 36.2099 19.0731 37.0373 18.5703C36.5117 17.8284 35.8183 17.2178 35.0121 16.7871C34.206 16.3563 33.3094 16.1173 32.3934 16.089C30.4396 15.8863 28.5454 17.2445 27.5497 17.2445C26.5348 17.2445 25.0019 16.1091 23.3511 16.1427C22.2834 16.1768 21.2428 16.4837 20.3307 17.0334C19.4186 17.5832 18.6662 18.3571 18.1467 19.2797C15.8964 23.1304 17.5749 28.7896 19.7305 31.9022C20.809 33.4264 22.0694 35.1289 23.7187 35.0685C25.3326 35.0024 25.9353 34.0514 27.8835 34.0514C29.8135 34.0514 30.379 35.0685 32.0617 35.0301C33.7935 35.0023 34.8846 33.4992 35.9252 31.9606C36.7001 30.8746 37.2964 29.6743 37.692 28.4042C36.6859 27.9836 35.8273 27.2796 35.2233 26.38C34.6192 25.4804 34.2965 24.4249 34.2953 23.3452Z" fill="white"/>
<path d="M31.1173 14.0411C32.0616 12.9209 32.5268 11.481 32.4141 10.0273C30.9715 10.1771 29.639 10.8584 28.682 11.9357C28.2141 12.4619 27.8557 13.0741 27.6274 13.7374C27.399 14.4006 27.3052 15.1017 27.3512 15.8008C28.0728 15.8081 28.7866 15.6536 29.439 15.3488C30.0913 15.044 30.6652 14.5968 31.1173 14.0411Z" fill="white"/>
<path d="M54.6961 31.2138H49.1886L47.866 35.0737H45.5332L50.7498 20.793H53.1735L58.39 35.0737H56.0175L54.6961 31.2138ZM49.759 29.4326H54.1246L51.9725 23.1682H51.9122L49.759 29.4326Z" fill="white"/>
<path d="M69.6555 29.8661C69.6555 33.1016 67.9033 35.1804 65.2593 35.1804C64.5895 35.215 63.9233 35.0625 63.3372 34.7404C62.751 34.4182 62.2684 33.9394 61.9448 33.3588H61.8947V38.5158H59.7324V24.6597H61.8255V26.3914H61.8652C62.2038 25.8136 62.6945 25.3373 63.2851 25.0131C63.8758 24.689 64.5443 24.5292 65.2195 24.5507C67.8931 24.5508 69.6555 26.6396 69.6555 29.8661ZM67.4329 29.8661C67.4329 27.7582 66.3307 26.3723 64.6491 26.3723C62.9969 26.3723 61.8857 27.7874 61.8857 29.8661C61.8857 31.964 62.9969 33.3689 64.6491 33.3689C66.3308 33.3689 67.4329 31.9932 67.4329 29.8661Z" fill="white"/>
<path d="M81.2512 29.8661C81.2512 33.1016 79.499 35.1804 76.855 35.1804C76.1852 35.215 75.519 35.0625 74.9329 34.7404C74.3467 34.4182 73.8641 33.9394 73.5405 33.3588H73.4904V38.5158H71.3281V24.6597H73.4211V26.3914H73.4609C73.7994 25.8136 74.2901 25.3373 74.8808 25.0131C75.4714 24.689 76.1399 24.5292 76.8151 24.5507C79.4888 24.5507 81.2512 26.6396 81.2512 29.8661ZM79.0286 29.8661C79.0286 27.7582 77.9264 26.3723 76.2448 26.3723C74.5926 26.3723 73.4814 27.7874 73.4814 29.8661C73.4814 31.964 74.5926 33.3689 76.2448 33.3689C77.9265 33.3689 79.0286 31.9932 79.0286 29.8661H79.0286Z" fill="white"/>
<path d="M88.9127 31.0926C89.0729 32.5088 90.4649 33.4386 92.367 33.4386C94.1895 33.4386 95.5008 32.5087 95.5008 31.2318C95.5008 30.1233 94.7099 29.4596 92.8374 29.0048L90.9648 28.5589C88.3116 27.9255 87.0799 26.6992 87.0799 24.7091C87.0799 22.2452 89.2525 20.5527 92.3374 20.5527C95.3905 20.5527 97.4836 22.2452 97.554 24.7091H95.3712C95.2405 23.284 94.0486 22.4237 92.3067 22.4237C90.5648 22.4237 89.3729 23.2941 89.3729 24.5609C89.3729 25.5705 90.1342 26.1646 91.9965 26.6194L93.5884 27.0057C96.5529 27.6987 97.7846 28.8756 97.7846 30.9645C97.7846 33.6362 95.6314 35.3095 92.2067 35.3095C89.0024 35.3095 86.839 33.6755 86.6992 31.0925L88.9127 31.0926Z" fill="white"/>
<path d="M102.45 22.1953V24.6593H104.454V26.3517H102.45V32.0916C102.45 32.9833 102.851 33.3988 103.732 33.3988C103.97 33.3947 104.207 33.3782 104.443 33.3494V35.0317C104.047 35.1048 103.645 35.1379 103.242 35.1305C101.11 35.1305 100.278 34.3388 100.278 32.3195V26.3517H98.7461V24.6593H100.278V22.1953H102.45Z" fill="white"/>
<path d="M105.615 29.8657C105.615 26.5898 107.567 24.5312 110.611 24.5312C113.666 24.5312 115.609 26.5898 115.609 29.8657C115.609 33.1506 113.676 35.2002 110.611 35.2002C107.548 35.2002 105.615 33.1506 105.615 29.8657ZM113.405 29.8657C113.405 27.6185 112.364 26.2922 110.611 26.2922C108.859 26.2922 107.818 27.6286 107.818 29.8657C107.818 32.1219 108.859 33.4381 110.611 33.4381C112.364 33.4381 113.405 32.1219 113.405 29.8657H113.405Z" fill="white"/>
<path d="M117.395 24.6596H119.457V26.4317H119.507C119.646 25.8783 119.974 25.3891 120.436 25.0466C120.897 24.704 121.464 24.5289 122.041 24.5506C122.29 24.5498 122.538 24.5765 122.782 24.6304V26.6294C122.467 26.5344 122.139 26.4908 121.81 26.5003C121.496 26.4877 121.183 26.5424 120.892 26.6607C120.601 26.779 120.34 26.9581 120.126 27.1857C119.912 27.4133 119.75 27.6839 119.652 27.9791C119.554 28.2743 119.521 28.587 119.557 28.8957V35.0713H117.395L117.395 24.6596Z" fill="white"/>
<path d="M132.749 32.013C132.458 33.9031 130.595 35.2002 128.213 35.2002C125.148 35.2002 123.246 33.1708 123.246 29.9151C123.246 26.6493 125.158 24.5312 128.122 24.5312C131.036 24.5312 132.869 26.5101 132.869 29.6669V30.3992H125.429V30.5283C125.395 30.9115 125.443 31.2975 125.571 31.6607C125.699 32.0239 125.904 32.356 126.172 32.635C126.44 32.9139 126.765 33.1333 127.126 33.2785C127.486 33.4238 127.874 33.4916 128.263 33.4774C128.774 33.5248 129.286 33.4078 129.725 33.1439C130.163 32.8801 130.504 32.4834 130.695 32.013L132.749 32.013ZM125.439 28.9055H130.706C130.725 28.561 130.672 28.2162 130.55 27.8928C130.429 27.5694 130.241 27.2744 129.998 27.0263C129.755 26.7781 129.463 26.5823 129.141 26.4509C128.818 26.3196 128.471 26.2556 128.122 26.263C127.77 26.2609 127.421 26.3278 127.095 26.4597C126.769 26.5917 126.473 26.7861 126.223 27.0318C125.974 27.2775 125.776 27.5695 125.642 27.8911C125.507 28.2127 125.438 28.5575 125.439 28.9055V28.9055Z" fill="white"/>
<path d="M49.4863 10.0351C49.9396 10.003 50.3945 10.0707 50.8181 10.2333C51.2418 10.3959 51.6237 10.6494 51.9362 10.9756C52.2487 11.3017 52.484 11.6923 52.6253 12.1192C52.7666 12.5461 52.8102 12.9987 52.753 13.4443C52.753 15.6362 51.5543 16.8962 49.4863 16.8962H46.9785V10.0351H49.4863ZM48.0568 15.9259H49.3658C49.6897 15.945 50.0139 15.8925 50.3147 15.7722C50.6156 15.6519 50.8854 15.4669 51.1048 15.2305C51.3241 14.9941 51.4873 14.7124 51.5826 14.4058C51.6778 14.0992 51.7027 13.7755 51.6554 13.4583C51.6993 13.1422 51.6719 12.8205 51.5751 12.5162C51.4784 12.2119 51.3148 11.9325 51.096 11.698C50.8772 11.4635 50.6086 11.2797 50.3094 11.1599C50.0103 11.04 49.6881 10.987 49.3658 11.0047H48.0568V15.9259Z" fill="white"/>
<path d="M53.9687 14.3154C53.9358 13.9752 53.9752 13.6318 54.0844 13.3075C54.1935 12.9832 54.3701 12.685 54.6028 12.432C54.8354 12.1791 55.119 11.9769 55.4353 11.8386C55.7516 11.7003 56.0936 11.6289 56.4395 11.6289C56.7854 11.6289 57.1275 11.7003 57.4438 11.8386C57.7601 11.9769 58.0437 12.1791 58.2763 12.432C58.5089 12.685 58.6855 12.9832 58.7947 13.3075C58.9039 13.6318 58.9433 13.9752 58.9103 14.3154C58.9439 14.656 58.905 14.9998 58.7961 15.3247C58.6872 15.6495 58.5107 15.9483 58.278 16.2018C58.0453 16.4552 57.7615 16.6577 57.4449 16.7963C57.1283 16.9349 56.7858 17.0065 56.4395 17.0065C56.0932 17.0065 55.7508 16.9349 55.4341 16.7963C55.1175 16.6577 54.8337 16.4552 54.601 16.2018C54.3683 15.9483 54.1919 15.6495 54.083 15.3247C53.9741 14.9998 53.9352 14.656 53.9687 14.3154ZM57.8468 14.3154C57.8468 13.1931 57.3366 12.5367 56.4412 12.5367C55.5425 12.5367 55.0368 13.1931 55.0368 14.3154C55.0368 15.4468 55.5425 16.0981 56.4412 16.0981C57.3366 16.098 57.8468 15.4423 57.8468 14.3154H57.8468Z" fill="white"/>
<path d="M65.4785 16.9004H64.4058L63.323 13.087H63.2412L62.1629 16.9004H61.1004L59.6562 11.7227H60.705L61.6436 15.6736H61.7209L62.798 11.7227H63.79L64.8672 15.6736H64.949L65.883 11.7227H66.917L65.4785 16.9004Z" fill="white"/>
<path d="M68.1328 11.7261H69.1282V12.5487H69.2054C69.3365 12.2532 69.5576 12.0056 69.8379 11.8402C70.1181 11.6749 70.4436 11.6001 70.7689 11.6262C71.0239 11.6072 71.2799 11.6452 71.5179 11.7373C71.756 11.8294 71.97 11.9733 72.1442 12.1582C72.3183 12.3432 72.4481 12.5645 72.524 12.8058C72.5999 13.047 72.6198 13.3021 72.5824 13.552V16.9038H71.5484V13.8086C71.5484 12.9765 71.1826 12.5627 70.4178 12.5627C70.2448 12.5547 70.072 12.5839 69.9113 12.6481C69.7507 12.7122 69.606 12.81 69.4872 12.9346C69.3684 13.0593 69.2782 13.2078 69.2229 13.3701C69.1676 13.5324 69.1485 13.7046 69.1668 13.8748V16.9039H68.1328L68.1328 11.7261Z" fill="white"/>
<path d="M74.2305 9.70312H75.2645V16.9021H74.2305V9.70312Z" fill="white"/>
<path d="M76.707 14.3077C76.6741 13.9674 76.7135 13.6241 76.8227 13.2997C76.9319 12.9754 77.1085 12.6772 77.3412 12.4242C77.5738 12.1712 77.8574 11.9691 78.1737 11.8308C78.4901 11.6925 78.8322 11.6211 79.1781 11.6211C79.524 11.6211 79.8661 11.6925 80.1824 11.8308C80.4987 11.9691 80.7823 12.1712 81.015 12.4242C81.2476 12.6772 81.4242 12.9754 81.5334 13.2997C81.6427 13.6241 81.6821 13.9674 81.6492 14.3077C81.6827 14.6483 81.6437 14.9921 81.5348 15.317C81.4259 15.6418 81.2494 15.9406 81.0166 16.194C80.7839 16.4475 80.5001 16.65 80.1835 16.7886C79.8668 16.9272 79.5244 16.9988 79.1781 16.9988C78.8318 16.9988 78.4893 16.9272 78.1726 16.7886C77.856 16.65 77.5722 16.4475 77.3395 16.194C77.1068 15.9406 76.9303 15.6418 76.8213 15.317C76.7124 14.9921 76.6735 14.6483 76.707 14.3077ZM80.585 14.3077C80.585 13.1854 80.0748 12.529 79.1795 12.529C78.2807 12.529 77.7751 13.1854 77.7751 14.3077C77.7751 15.4391 78.2807 16.0903 79.1795 16.0903C80.0749 16.0903 80.585 15.4345 80.585 14.3077H80.585Z" fill="white"/>
<path d="M82.7344 15.4423C82.7344 14.5103 83.4366 13.973 84.6831 13.8966L86.1023 13.8158V13.3689C86.1023 12.822 85.7364 12.5132 85.0296 12.5132C84.4524 12.5132 84.0525 12.7226 83.9377 13.0887H82.9366C83.0423 12.1993 83.8888 11.6289 85.0774 11.6289C86.3909 11.6289 87.1317 12.2751 87.1317 13.3689V16.9066H86.1364V16.1789H86.0545C85.8885 16.44 85.6553 16.6527 85.3788 16.7956C85.1023 16.9384 84.7925 17.0061 84.4808 16.9919C84.2609 17.0145 84.0386 16.9913 83.8282 16.9238C83.6179 16.8563 83.4242 16.746 83.2597 16.6C83.0952 16.454 82.9634 16.2756 82.8729 16.0762C82.7824 15.8768 82.7352 15.6608 82.7344 15.4423ZM86.1023 14.9999V14.567L84.8228 14.6478C84.1013 14.6956 83.7741 14.9381 83.7741 15.3946C83.7741 15.8606 84.1831 16.1318 84.7456 16.1318C84.9104 16.1483 85.0769 16.1318 85.2351 16.0834C85.3934 16.035 85.5402 15.9557 85.6667 15.85C85.7933 15.7444 85.8971 15.6148 85.9719 15.4687C86.0468 15.3226 86.0911 15.1632 86.1023 14.9999Z" fill="white"/>
<path d="M88.4902 14.311C88.4902 12.6749 89.3413 11.6385 90.6651 11.6385C90.9925 11.6236 91.3175 11.7011 91.602 11.8619C91.8865 12.0228 92.1188 12.2604 92.2717 12.5469H92.349V9.70312H93.383V16.9021H92.3922V16.0841H92.3104C92.1456 16.3686 91.9052 16.6033 91.6152 16.7625C91.3252 16.9217 90.9966 16.9995 90.6651 16.9874C89.3322 16.9875 88.4902 15.951 88.4902 14.311ZM89.5584 14.311C89.5584 15.4092 90.0822 16.0701 90.9583 16.0701C91.8297 16.0701 92.3684 15.3997 92.3684 14.3155C92.3684 13.2364 91.8241 12.5565 90.9583 12.5565C90.0878 12.5565 89.5583 13.2218 89.5583 14.311H89.5584Z" fill="white"/>
<path d="M97.664 14.3154C97.6311 13.9752 97.6705 13.6318 97.7797 13.3075C97.8889 12.9832 98.0654 12.685 98.2981 12.432C98.5307 12.1791 98.8143 11.9769 99.1306 11.8386C99.4469 11.7003 99.789 11.6289 100.135 11.6289C100.481 11.6289 100.823 11.7003 101.139 11.8386C101.455 11.9769 101.739 12.1791 101.972 12.432C102.204 12.685 102.381 12.9832 102.49 13.3075C102.599 13.6318 102.639 13.9752 102.606 14.3154C102.639 14.656 102.6 14.9998 102.491 15.3247C102.383 15.6495 102.206 15.9483 101.973 16.2018C101.741 16.4552 101.457 16.6577 101.14 16.7963C100.824 16.9349 100.481 17.0065 100.135 17.0065C99.7886 17.0065 99.4461 16.9349 99.1295 16.7963C98.8128 16.6577 98.529 16.4552 98.2963 16.2018C98.0636 15.9483 97.8872 15.6495 97.7783 15.3247C97.6694 14.9998 97.6305 14.656 97.664 14.3154ZM101.542 14.3154C101.542 13.1931 101.032 12.5367 100.137 12.5367C99.2378 12.5367 98.7322 13.1931 98.7322 14.3154C98.7322 15.4468 99.2378 16.0981 100.137 16.0981C101.032 16.098 101.542 15.4423 101.542 14.3154Z" fill="white"/>
<path d="M103.99 11.7261H104.986V12.5487H105.063C105.194 12.2532 105.415 12.0056 105.695 11.8402C105.976 11.6749 106.301 11.6001 106.626 11.6262C106.881 11.6072 107.137 11.6452 107.375 11.7373C107.613 11.8294 107.827 11.9733 108.002 12.1582C108.176 12.3432 108.306 12.5645 108.381 12.8058C108.457 13.047 108.477 13.3021 108.44 13.552V16.9038H107.406V13.8086C107.406 12.9765 107.04 12.5627 106.275 12.5627C106.102 12.5547 105.929 12.5839 105.769 12.6481C105.608 12.7122 105.463 12.81 105.345 12.9346C105.226 13.0593 105.136 13.2078 105.08 13.3701C105.025 13.5324 105.006 13.7046 105.024 13.8748V16.9039H103.99V11.7261Z" fill="white"/>
<path d="M114.281 10.4375V11.7502H115.416V12.6109H114.281V15.2733C114.281 15.8157 114.507 16.0532 115.022 16.0532C115.154 16.0528 115.285 16.0449 115.416 16.0296V16.8808C115.23 16.9136 115.042 16.9311 114.854 16.933C113.704 16.933 113.246 16.5332 113.246 15.535V12.6109H112.414V11.7501H113.246V10.4375H114.281Z" fill="white"/>
<path d="M116.83 9.70312H117.855V12.5564H117.937C118.074 12.2583 118.301 12.0092 118.587 11.8432C118.873 11.6773 119.204 11.6024 119.534 11.6289C119.788 11.6153 120.041 11.6571 120.277 11.7515C120.512 11.8458 120.724 11.9903 120.896 12.1747C121.068 12.359 121.197 12.5787 121.274 12.8181C121.35 13.0574 121.373 13.3104 121.339 13.5592V16.9021H120.304V13.8113C120.304 12.9843 119.914 12.5654 119.183 12.5654C119.006 12.551 118.827 12.5752 118.66 12.6362C118.492 12.6972 118.34 12.7936 118.215 12.9186C118.089 13.0436 117.993 13.1943 117.932 13.36C117.872 13.5258 117.848 13.7026 117.864 13.8781V16.9021H116.83L116.83 9.70312Z" fill="white"/>
<path d="M127.367 15.5008C127.227 15.9741 126.922 16.3834 126.507 16.6572C126.092 16.9311 125.593 17.052 125.097 16.9988C124.752 17.0078 124.409 16.9425 124.092 16.8073C123.775 16.6722 123.491 16.4705 123.261 16.2162C123.03 15.9619 122.859 15.6612 122.758 15.3348C122.657 15.0085 122.629 14.6643 122.677 14.3263C122.631 13.9872 122.659 13.6423 122.76 13.315C122.86 12.9877 123.031 12.6855 123.26 12.429C123.489 12.1725 123.771 11.9676 124.087 11.8283C124.403 11.6889 124.746 11.6183 125.092 11.6212C126.55 11.6212 127.43 12.6055 127.43 14.2314V14.5879H123.73V14.6452C123.714 14.8352 123.738 15.0265 123.801 15.2067C123.864 15.3869 123.964 15.5522 124.096 15.6918C124.227 15.8315 124.386 15.9425 124.564 16.0177C124.741 16.0929 124.932 16.1306 125.125 16.1285C125.373 16.1579 125.623 16.1138 125.845 16.0021C126.067 15.8903 126.25 15.7158 126.372 15.5008L127.367 15.5008ZM123.73 13.8322H126.376C126.389 13.6584 126.365 13.4839 126.306 13.3198C126.247 13.1557 126.153 13.0056 126.032 12.8793C125.911 12.753 125.764 12.6532 125.601 12.5863C125.438 12.5194 125.263 12.4869 125.087 12.4909C124.908 12.4887 124.73 12.5218 124.565 12.5885C124.399 12.6551 124.249 12.7538 124.122 12.8788C123.996 13.0038 123.896 13.1526 123.828 13.3163C123.761 13.4801 123.728 13.6555 123.73 13.8322H123.73Z" fill="white"/>
</g>
<defs>
<clipPath id="clip0_2013_23907">
<rect width="150" height="46" fill="white"/>
</clipPath>
</defs>
</svg>
